<?xml version="1.0" encoding="utf-8"?>
<!-- Generator: Adobe Illustrator 22.0.0, SVG Export Plug-In . SVG Version: 6.00 Build 0)  -->
<svg version="1.1" id="Layer_2" xmlns="http://www.w3.org/2000/svg" xmlns:xlink="http://www.w3.org/1999/xlink" x="0px" y="0px"
	 viewBox="0 0 29.8 32.8" style="enable-background:new 0 0 29.8 32.8;" xml:space="preserve">
<style type="text/css">
	.st0{fill:#ABABAB;}
</style>
<g id="V_1_">
	<g>
		<path class="st0" d="M26.3,32c1.7,0,3.1-1.4,3.1-3.1V6.6c0-1.7-1.4-3.1-3.1-3.1H3.8c-1.7,0-3.1,1.4-3.1,3.1v22.4
			c0,1.7,1.4,3.1,3.1,3.1H26.3z M2,28.9V6.6c0-1,0.8-1.8,1.8-1.8h22.5c1,0,1.8,0.8,1.8,1.8v22.4c0,1-0.8,1.8-1.8,1.8H3.8
			C2.8,30.7,2,29.9,2,28.9z"/>
	</g>
	<g>
		<path class="st0" d="M9.7,6.7V1.6C9.7,1.3,9.4,1,9,1C8.7,1,8.4,1.3,8.4,1.6v5.1c0,0.4,0.3,0.6,0.6,0.6C9.4,7.4,9.7,7.1,9.7,6.7z"
			/>
	</g>
	<g>
		<path class="st0" d="M21.8,6.7V1.6c0-0.4-0.3-0.6-0.6-0.6c-0.4,0-0.6,0.3-0.6,0.6v5.1c0,0.4,0.3,0.6,0.6,0.6
			C21.5,7.4,21.8,7.1,21.8,6.7z"/>
	</g>
	<g>
		<rect x="1.3" y="9.7" class="st0" width="27.3" height="1.3"/>
	</g>
	<g id="XMLID_14_">
		<g>
			<g id="XMLID_15_">
				<path class="st0" d="M14.5,23.7C14.5,23.7,14.5,23.7,14.5,23.7c0.2,0,0.4-0.1,0.5-0.2l5.5-6.6c0.2-0.3,0.2-0.7-0.1-0.9
					c-0.3-0.2-0.7-0.2-0.9,0.1l-5,6l-2.6-2.5c-0.3-0.2-0.7-0.2-0.9,0c-0.2,0.3-0.2,0.7,0,0.9l3.1,3C14.2,23.7,14.3,23.7,14.5,23.7z"
					/>
			</g>
		</g>
	</g>
</g>
</svg>
