<?xml version="1.0" encoding="utf-8"?>
<!-- Generator: Adobe Illustrator 22.0.0, SVG Export Plug-In . SVG Version: 6.00 Build 0)  -->
<svg version="1.1" id="Calque_2" xmlns="http://www.w3.org/2000/svg" xmlns:xlink="http://www.w3.org/1999/xlink" x="0px" y="0px"
	 viewBox="0 0 190.3 173.3" style="enable-background:new 0 0 190.3 173.3;" xml:space="preserve">
<style type="text/css">
	.st0{fill:none;stroke:#3ACBCC;stroke-width:3;stroke-linecap:round;stroke-linejoin:round;stroke-miterlimit:10;}
	.st1{fill:none;stroke:#3ACBCC;stroke-width:3;stroke-miterlimit:10;}
</style>
<g>
	<path class="st0" d="M109.4,140.9c44.7-1.7,47.9-39.2,47.9-39.2s0.2-8.3-3.6-12.6"/>
	<path class="st0" d="M39.3,104.9c0,0,8.9,67,55.2,67c46.3,0,57.7-67,57.7-67c3.1-20.2-2.6-40.2-2.6-40.2c0,0-24.4-7.1-38.9-22
		c-6.1-6.3-6.4-5.6-8.7,0.5c-16.8,43.4-60,34-60,34"/>
	<g>
		<g>
			<g>
				<path class="st1" d="M74,95.9c0,1.3-1.1,2.4-2.4,2.4c-1.3,0-2.4-1.1-2.4-2.4c0-1.3,1.1-2.4,2.4-2.4C73,93.6,74,94.6,74,95.9z"/>
			</g>
		</g>
		<g>
			<g>
				<path class="st1" d="M123.2,95.9c0,1.3-1.1,2.4-2.4,2.4c-1.3,0-2.4-1.1-2.4-2.4c0-1.3,1.1-2.4,2.4-2.4
					C122.2,93.6,123.2,94.6,123.2,95.9z"/>
			</g>
		</g>
	</g>
	<path class="st0" d="M109.1,142.1c0,3.5-2.9,6.4-6.4,6.4H89.8c-3.5,0-6.4-2.9-6.4-6.4v-2.9c0-3.5,2.9-6.4,6.4-6.4h12.9
		c3.5,0,6.4,2.9,6.4,6.4V142.1z"/>
	<path class="st0" d="M158.1,149.6c21.2,11.9,30.7-3.1,30.7-3.1c-14.9-13-13.5-21-13.9-31c-0.5-10.5,0.5-12.7,3.6-27.5
		c9.6-77.2-65-86.5-83.3-86.5c-18.3,0-93,8.9-83.3,86.5c3.1,14.8,4.1,17.1,3.6,27.5c-0.5,10,1,18-13.9,31c0,0,9.6,14.9,30.7,3.1"/>
</g>
</svg>
