<?xml version="1.0" encoding="utf-8"?>
<!-- Generator: Adobe Illustrator 22.0.0, SVG Export Plug-In . SVG Version: 6.00 Build 0)  -->
<svg version="1.1" id="Calque_2" xmlns="http://www.w3.org/2000/svg" xmlns:xlink="http://www.w3.org/1999/xlink" x="0px" y="0px"
	 viewBox="0 0 200.8 149.8" style="enable-background:new 0 0 200.8 149.8;" xml:space="preserve">
<style type="text/css">
	.st0{fill:none;stroke:#3ACBCC;stroke-width:3;stroke-linecap:round;stroke-linejoin:round;stroke-miterlimit:10;}
	.st1{fill:none;stroke:#3ACBCC;stroke-width:3;stroke-linecap:round;stroke-miterlimit:10;}
	.st2{fill:none;stroke:#3ACBCC;stroke-width:3;stroke-linejoin:round;stroke-miterlimit:10;}
	.st3{fill:none;stroke:#3ACBCC;stroke-width:3;stroke-miterlimit:10;}
	.st4{fill:#3ACBCC;}
</style>
<g>
	<path class="st0" d="M126.9,121c0,2.2-1.8,4-4,4H77.8c-2.2,0-4-1.8-4-4V85.8c0-2.2,1.8-4,4-4h45.1c2.2,0,4,1.8,4,4V121z"/>
	<line class="st1" x1="100.4" y1="99.4" x2="100.4" y2="112.1"/>
	<line class="st2" x1="4.6" y1="43.7" x2="196.2" y2="43.7"/>
	<g>
		<g>
			<g>
				<path class="st3" d="M31,24.4c0,1.3-1.1,2.4-2.4,2.4c-1.3,0-2.4-1.1-2.4-2.4c0-1.3,1.1-2.4,2.4-2.4C30,22,31,23.1,31,24.4z"/>
			</g>
		</g>
		<g>
			<g>
				<circle class="st3" cx="51.4" cy="24.4" r="2.4"/>
			</g>
		</g>
		<g>
			<g>
				<path class="st3" d="M76.6,24.4c0,1.3-1.1,2.4-2.4,2.4c-1.3,0-2.4-1.1-2.4-2.4c0-1.3,1.1-2.4,2.4-2.4
					C75.6,22,76.6,23.1,76.6,24.4z"/>
			</g>
		</g>
	</g>
	<g>
		<g>
			<path class="st3" d="M102.8,98.9c0,1.3-1.1,2.4-2.4,2.4c-1.3,0-2.4-1.1-2.4-2.4s1.1-2.4,2.4-2.4
				C101.7,96.5,102.8,97.6,102.8,98.9z"/>
		</g>
	</g>
	<path class="st3" d="M116.6,82.3v-8c0-6.7-5.5-12.2-12.2-12.2h-7.9c-6.7,0-12.2,5.5-12.2,12.2v8"/>
</g>
<g>
	<path class="st4" d="M185.5,3c6.8,0,12.3,5.5,12.3,12.3v119.2c0,6.8-5.5,12.3-12.3,12.3H15.3c-6.8,0-12.3-5.5-12.3-12.3V15.3
		C3,8.5,8.5,3,15.3,3H185.5 M185.5,0H15.3C6.9,0,0,6.9,0,15.3v119.2c0,8.4,6.9,15.3,15.3,15.3h170.2c8.4,0,15.3-6.9,15.3-15.3V15.3
		C200.8,6.9,193.9,0,185.5,0L185.5,0z"/>
</g>
</svg>
