<?xml version="1.0" encoding="utf-8"?>
<!-- Generator: Adobe Illustrator 22.0.0, SVG Export Plug-In . SVG Version: 6.00 Build 0)  -->
<svg version="1.1" id="Calque_2" xmlns="http://www.w3.org/2000/svg" xmlns:xlink="http://www.w3.org/1999/xlink" x="0px" y="0px"
	 viewBox="0 0 214.7 140.8" style="enable-background:new 0 0 214.7 140.8;" xml:space="preserve">
<style type="text/css">
	.st0{fill:none;stroke:#3ACBCC;stroke-width:3;stroke-linecap:round;stroke-linejoin:round;stroke-miterlimit:10;}
	.st1{fill:none;stroke:#3ACBCC;stroke-width:3;stroke-linejoin:round;stroke-miterlimit:10;}
</style>
<g>
	<g>
		<path class="st0" d="M134.1,139.3l-39.9-26.8c-3.8-2.6-4.9-7.9-2.2-11.7l0.7-1.1c2.6-3.8,7.9-4.9,11.7-2.2l18.1,12.1l-3.9-19.7
			l-8-40.7c-0.9-4.6,2.1-9,6.6-9.9l0.7-0.1c4.6-0.9,9,2.1,9.9,6.6l6.1,31.1l32.8-1c0,0,10.8,0,13.4,13.6l4.5,38.5"/>
	</g>
	<polygon class="st0" points="32.2,1.5 41.1,21.5 62.8,23.8 46.6,38.4 51.1,59.8 32.2,48.9 13.2,59.8 17.7,38.4 1.5,23.8 23.3,21.5 
			"/>
	<polyline class="st1" points="100.4,52.9 88.4,59.8 92.9,38.4 76.7,23.8 98.4,21.5 107.3,1.5 116.3,21.5 138,23.8 129.3,31.6 	"/>
	<polygon class="st0" points="182.5,1.5 191.4,21.5 213.2,23.8 196.9,38.4 201.5,59.8 182.5,48.9 163.6,59.8 168.1,38.4 151.9,23.8 
		173.6,21.5 	"/>
</g>
</svg>
