<?xml version="1.0" encoding="utf-8"?>
<!-- Generator: Adobe Illustrator 22.0.0, SVG Export Plug-In . SVG Version: 6.00 Build 0)  -->
<svg version="1.1" id="Calque_2" xmlns="http://www.w3.org/2000/svg" xmlns:xlink="http://www.w3.org/1999/xlink" x="0px" y="0px"
	 viewBox="0 0 47.1 56.2" style="enable-background:new 0 0 47.1 56.2;" xml:space="preserve">
<style type="text/css">
	.st0{fill:none;stroke:#3ACBCC;stroke-width:1.5;stroke-linecap:round;stroke-linejoin:round;stroke-miterlimit:10;}
	.st1{fill:none;stroke:#3ACBCC;stroke-width:1.5;stroke-linejoin:round;stroke-miterlimit:10;}
</style>
<g>
	<polyline class="st0" points="24.1,24.2 24.1,15.3 21,17.7 	"/>
	<g>
		<path class="st1" d="M22.3,1.2c0.9-0.6,2.4-0.6,3.3,0.1l2.3,1.7c0.9,0.6,2.5,1.3,3.6,1.4l2.9,0.4c1.1,0.1,2.2,1.1,2.5,2.2l0.7,2.8
			c0.3,1.1,1.1,2.6,1.9,3.4l1.9,2.1c0.7,0.8,1,2.3,0.5,3.3l-1.2,2.6c-0.5,1-0.8,2.7-0.8,3.8l0.1,2.9c0,1.1-0.7,2.4-1.7,2.8l-2.6,1.2
			c-1,0.5-2.4,1.5-3,2.4l-1.7,2.3c-0.7,0.9-2.1,1.3-3.1,1.1L25,36.8c-1.1-0.3-2.8-0.3-3.9-0.1l-2.8,0.6c-1.1,0.2-2.5-0.3-3.1-1.2
			l-1.6-2.4c-0.6-0.9-1.9-2.1-2.9-2.6l-2.6-1.3c-1-0.5-1.7-1.8-1.6-2.9l0.3-2.9c0.1-1.1-0.2-2.8-0.6-3.8l-1.1-2.7
			c-0.4-1-0.1-2.5,0.7-3.3l2-2c0.8-0.8,1.7-2.3,2-3.3l0.9-2.7c0.3-1,1.5-2,2.6-2.1L16.2,4c1.1-0.1,2.8-0.6,3.7-1.2L22.3,1.2z"/>
	</g>
	<g>
		<polyline class="st1" points="18.9,41.7 12.1,55.4 9.7,45.9 0.8,49.9 8.1,34.8 		"/>
		<polyline class="st1" points="28.2,41.7 35.1,55.4 37.4,45.9 46.4,49.9 39,34.8 		"/>
	</g>
</g>
<circle class="st1" cx="23.6" cy="19.4" r="11.2"/>
</svg>
