<?xml version="1.0" encoding="utf-8"?>
<!-- Generator: Adobe Illustrator 22.0.0, SVG Export Plug-In . SVG Version: 6.00 Build 0)  -->
<svg version="1.1" id="Layer_1" xmlns="http://www.w3.org/2000/svg" xmlns:xlink="http://www.w3.org/1999/xlink" x="0px" y="0px"
	 viewBox="0 0 37.5 36.1" style="enable-background:new 0 0 37.5 36.1;" xml:space="preserve">
<style type="text/css">
	.st0{fill:#FFFFFF;}
	.st1{clip-path:url(#SVGID_2_);}
</style>
<g>
	<rect x="12.7" y="16.8" transform="matrix(0.7071 -0.7071 0.7071 0.7071 -11.2299 16.4058)" class="st0" width="3" height="10"/>
</g>
<g>
	<rect x="13" y="14.9" transform="matrix(0.7071 -0.7071 0.7071 0.7071 -4.0951 22.8924)" class="st0" width="25.2" height="3"/>
</g>
<g>
	<defs>
		<polygon id="SVGID_1_" points="-15.9,19.5 14.4,-10.8 30.2,4.6 21.5,13.4 27.9,20.5 36.3,12.2 45.9,20.7 15.6,51 		"/>
	</defs>
	<clipPath id="SVGID_2_">
		<use xlink:href="#SVGID_1_"  style="overflow:visible;"/>
	</clipPath>
	<g class="st1">
		<path class="st0" d="M18.1,35C9.6,35,2.6,28.1,2.6,19.5S9.6,4.1,18.1,4.1S33.5,11,33.5,19.5S26.6,35,18.1,35z M18.1,6.1
			c-7.4,0-13.4,6-13.4,13.4S10.7,33,18.1,33s13.4-6,13.4-13.4S25.5,6.1,18.1,6.1z"/>
	</g>
</g>
</svg>
