<?xml version="1.0" encoding="utf-8"?>
<!-- Generator: Adobe Illustrator 22.0.0, SVG Export Plug-In . SVG Version: 6.00 Build 0)  -->
<svg version="1.1" id="Layer_1" xmlns="http://www.w3.org/2000/svg" xmlns:xlink="http://www.w3.org/1999/xlink" x="0px" y="0px"
	 viewBox="-33.7 -10 202.4 60" style="enable-background:new -33.7 -10 202.4 60;" xml:space="preserve">
<style type="text/css">
	.st0{fill:#3ACBCC;}
</style>
<g>
	<path class="st0" d="M52.8,7.7V6.6c-1.7,0-2.6,0.4-2.6,1.4c0,0.7,0.5,1.1,1.1,1.1C52,9.2,52.8,8.6,52.8,7.7z"/>
	<path class="st0" d="M38.2,20L38.2,20c-0.3,0.8-0.6,2.1-1,3.8l-1.7,5.2h5.4l-1.7-5.2C39.1,23.2,38.7,21.9,38.2,20z"/>
	<path class="st0" d="M56.3,25.1c-0.8,0-1.5,0.3-2.1,0.8c-0.6,0.5-1.1,1.2-1.3,2.1c-0.1,0.4-0.1,0.7-0.1,1v2.4c0,1,0.3,1.9,1,2.7
		c0.6,0.7,1.5,1.1,2.5,1.1c1.2,0,2.1-0.5,2.8-1.4c0.7-0.9,1-2.2,1-3.7c0-1.4-0.3-2.6-0.9-3.5C58.4,25.6,57.4,25.1,56.3,25.1z"/>
	<path class="st0" d="M117.8,24.9c-1.3,0-2.3,0.6-2.9,1.7c-0.6,0.9-0.9,2.1-0.9,3.5c0,1.3,0.3,2.5,0.9,3.4c0.7,1.1,1.7,1.7,2.9,1.7
		c1.2,0,2.2-0.6,2.9-1.7c0.6-1,0.9-2.1,0.9-3.4c0-1.3-0.3-2.4-0.9-3.4C120,25.5,119,24.9,117.8,24.9z"/>
	<path class="st0" d="M77,4.2c-0.9,0-1.7,0.8-1.7,1.9v1.2c0,1,0.7,1.8,1.7,1.8c1.2,0,1.9-1,1.9-2.5C78.9,5.1,78.1,4.2,77,4.2z"/>
	<path class="st0" d="M69.4,7.7V6.6c-1.7,0-2.6,0.4-2.6,1.4c0,0.7,0.5,1.1,1.1,1.1C68.7,9.2,69.4,8.6,69.4,7.7z"/>
	<path class="st0" d="M104.4,6.6c0-1.4-0.7-2.5-1.8-2.5c-1.1,0-1.9,1.1-1.9,2.5c0,1.5,0.7,2.5,1.8,2.5S104.4,8,104.4,6.6z"/>
	<path class="st0" d="M138.1,4c-0.9,0-1.6,0.8-1.7,1.9h3.3C139.6,4.8,139.1,4,138.1,4z"/>
	<path class="st0" d="M143.3,24.8c-1,0-1.9,0.4-2.5,1.3c-0.5,0.7-0.8,1.5-0.9,2.5l6.7,0c0-0.9-0.2-1.8-0.6-2.5
		C145.3,25.2,144.4,24.8,143.3,24.8z"/>
	<path class="st0" d="M35.7,3.5c-0.1-0.3-0.2-0.9-0.5-1.8h0c-0.1,0.4-0.2,1-0.5,1.8l-0.8,2.6h2.6L35.7,3.5z"/>
	<path class="st0" d="M171.3-3.8c0-3.3-2.7-6-6-6H-30.4c-3.3,0-6,2.7-6,6v47.6c0,3.3,2.7,6,6,6h195.7c3.3,0,6-2.7,6-6L171.3-3.8z
		 M120.4,3.1h1V1.8l1.5-0.5v1.8h1.7v1.2H123v3.4c0,0.9,0.3,1.3,0.9,1.3c0.3,0,0.5,0,0.7-0.1l0,1.2c-0.3,0.1-0.7,0.2-1.2,0.2
		c-1.2,0-2-0.7-2-2.5V4.3h-1V3.1z M90,2.9c1.8,0,2.9,1.3,2.9,3.4c0,0.3,0,0.5-0.1,0.7h-4.7c0,1.3,0.9,2.1,2.2,2.1
		c0.7,0,1.3-0.1,1.9-0.3l0.2,1.1c-0.7,0.3-1.5,0.4-2.4,0.4c-2.2,0-3.5-1.4-3.5-3.6C86.7,4.5,88,2.9,90,2.9z M61.4-0.2H63v10.3h-1.6
		V-0.2z M57.8,0c0.5,0,1,0.4,1,0.9c0,0.6-0.4,0.9-1,0.9c-0.5,0-0.9-0.4-0.9-0.9C56.9,0.4,57.3,0,57.8,0z M58.6,3.1v7.1H57V3.1H58.6z
		 M34.3,0.3h1.9l3.2,9.8h-1.7l-0.9-2.9h-3.2l-0.9,2.9h-1.6L34.3,0.3z M3,2.2c1.4-1.6,3.7-2.8,5.6-2.9c0.2,2.3-0.6,4.5-2,6.1
		C5.3,7.1,3.1,8.3,1,8.2C0.7,6,1.8,3.7,3,2.2z M13.9,32.8c-1.6,2.4-3.2,4.7-5.8,4.7C5.5,37.6,4.7,36,1.8,36c-2.9,0-3.9,1.5-6.3,1.6
		c-2.5,0.1-4.4-2.5-6-4.8c-3.3-4.8-5.8-13.4-2.4-19.3c1.6-2.9,4.6-4.7,7.9-4.8c2.5-0.1,4.8,1.7,6.3,1.7c1.5,0,4.4-2.1,7.3-1.8
		c1.2,0,4.7,0.5,7,3.8c-0.2,0.1-4.2,2.5-4.1,7.3c0.1,5.8,5.1,7.7,5.1,7.7C16.6,27.5,15.8,30.2,13.9,32.8z M43.4,37.3l-1.9-5.9H35
		l-1.8,5.9h-3.3l6.4-20h4l6.5,20H43.4z M44.6,10.2h-1.5l-2.6-7.1h1.7l1.2,3.7c0.2,0.6,0.4,1.2,0.5,1.8h0c0.1-0.5,0.3-1.1,0.5-1.8
		l1.2-3.7h1.6L44.6,10.2z M48.6,8.2c0-1.7,1.5-2.6,4.1-2.6V5.5c0-0.9-0.5-1.4-1.5-1.4c-0.7,0-1.3,0.2-1.8,0.5l-0.3-1
		c0.7-0.4,1.5-0.6,2.4-0.6c1.8,0,2.8,1,2.8,2.9v2.6c0,0.7,0,1.3,0.1,1.7l-1.4,0l-0.1-0.8h0c-0.5,0.7-1.2,1-2.1,1
		C49.5,10.3,48.6,9.4,48.6,8.2z M61.3,35.7c-1.2,1.3-2.7,1.9-4.4,1.9c-1.9,0-3.3-0.7-4.1-2v7.6h-3.2V27.6c0-1.5,0-3.1-0.1-4.7h2.8
		l0.2,2.3h0.1c1.1-1.7,2.7-2.6,4.9-2.6c1.7,0,3.1,0.7,4.2,2c1.1,1.3,1.7,3.1,1.7,5.3C63.3,32.3,62.6,34.3,61.3,35.7z M65.3,8.2
		c0-1.7,1.5-2.6,4.1-2.6V5.5c0-0.9-0.5-1.4-1.5-1.4c-0.7,0-1.3,0.2-1.8,0.5l-0.3-1c0.7-0.4,1.5-0.6,2.4-0.6c1.8,0,2.8,1,2.8,2.9v2.6
		c0,0.7,0,1.3,0.1,1.7h-1.4l-0.1-0.8h0c-0.5,0.7-1.2,1-2.1,1C66.2,10.3,65.3,9.4,65.3,8.2z M77.8,35.7c-1.2,1.3-2.7,1.9-4.4,1.9
		c-1.9,0-3.3-0.7-4.1-2v7.6h-3.2V27.6c0-1.5,0-3.1-0.1-4.7h2.8l0.2,2.3H69c1.1-1.7,2.7-2.6,4.9-2.6c1.7,0,3.1,0.7,4.3,2
		c1.1,1.3,1.7,3.1,1.7,5.3C79.8,32.3,79.2,34.3,77.8,35.7z M77.3,10.3c-1,0-1.7-0.4-2.2-1.3h0L75,10.2h-1.3c0-0.6,0.1-1.2,0.1-1.9
		v-8.4h1.6v4.3h0c0.5-0.8,1.2-1.2,2.3-1.2c1.7,0,2.9,1.5,2.9,3.6C80.5,8.7,79.2,10.3,77.3,10.3z M84.4,10.2h-1.6V-0.2h1.6V10.2z
		 M96.6,35.8c-1.3,1.2-3.1,1.7-5.4,1.7c-2.1,0-3.9-0.4-5.2-1.2l0.7-2.7c1.4,0.8,2.9,1.2,4.6,1.2c1.2,0,2.1-0.3,2.8-0.8
		c0.7-0.5,1-1.3,1-2.2c0-0.8-0.3-1.5-0.8-2c-0.6-0.6-1.5-1.1-2.8-1.5c-3.5-1.3-5.2-3.2-5.2-5.7c0-1.6,0.6-3,1.9-4
		c1.2-1,2.9-1.6,4.9-1.6c1.8,0,3.3,0.3,4.5,0.9l-0.8,2.6c-1.1-0.6-2.4-0.9-3.8-0.9c-1.1,0-2,0.3-2.6,0.8c-0.5,0.5-0.8,1.1-0.8,1.8
		c0,0.8,0.3,1.4,0.9,2c0.5,0.5,1.5,1,2.9,1.5c1.7,0.7,3,1.5,3.8,2.4c0.8,0.9,1.2,2.1,1.2,3.5C98.3,33.4,97.7,34.7,96.6,35.8z
		 M99.1,6.7c0-2.2,1.4-3.7,3.5-3.7c2,0,3.4,1.5,3.4,3.6c0,2.2-1.4,3.8-3.5,3.8C100.4,10.3,99.1,8.8,99.1,6.7z M108.9,25.3h-3.5v7
		c0,1.8,0.6,2.7,1.9,2.7c0.6,0,1,0,1.4-0.1l0.1,2.4c-0.6,0.2-1.5,0.4-2.5,0.4c-1.3,0-2.3-0.4-3-1.2c-0.7-0.8-1.1-2.1-1.1-3.9v-7.3
		h-2.1v-2.4h2.1v-2.6l3.1-0.9v3.6h3.5V25.3z M109.9,5.9v4.2h-1.6V5.1c0-0.6,0-1.3-0.1-2h1.4l0.1,1.1h0c0.4-0.8,1.3-1.2,2.2-1.2
		c1.5,0,2.5,1.1,2.5,3v4.2h-1.6V6.1c0-1.3-0.5-1.9-1.4-1.9C110.5,4.2,109.9,5,109.9,5.9z M122.9,35.4c-1.3,1.5-3.1,2.2-5.3,2.2
		c-2.1,0-3.8-0.7-5.1-2.1c-1.3-1.4-1.9-3.2-1.9-5.3c0-2.2,0.6-4.1,1.9-5.5c1.3-1.4,3-2.1,5.2-2.1c2.1,0,3.8,0.7,5.1,2.1
		c1.2,1.4,1.8,3.1,1.8,5.3C124.8,32.2,124.2,34,122.9,35.4z M126.9-0.2h1.6v4.2h0c0.5-0.8,1.2-1.1,2.1-1.1c1.5,0,2.4,1.2,2.4,3v4.2
		h-1.6v-4c0-1.3-0.5-1.9-1.4-1.9c-0.8,0-1.6,0.6-1.6,1.7v4.3h-1.6V-0.2z M134.2,25.6c-1.1,0-2,0.4-2.6,1.3c-0.5,0.8-0.8,1.7-0.8,2.8
		v7.6h-3.2v-9.9c0-1.7,0-3.2-0.1-4.5h2.8l0.1,2.8h0.1c0.3-0.9,0.9-1.7,1.6-2.3c0.7-0.5,1.5-0.8,2.3-0.8c0.3,0,0.6,0,0.8,0.1l0,3.1
		C134.9,25.6,134.5,25.6,134.2,25.6z M134.8,6.7c0-2.2,1.3-3.8,3.3-3.8c1.8,0,2.9,1.3,2.9,3.4c0,0.3,0,0.5-0.1,0.7h-4.7
		c0,1.3,0.9,2.1,2.2,2.1c0.7,0,1.3-0.1,1.9-0.3l0.2,1.1c-0.7,0.3-1.5,0.4-2.4,0.4C136.2,10.3,134.8,8.9,134.8,6.7z M149.4,30.8h-9.6
		c0,1.4,0.5,2.5,1.4,3.3c0.8,0.7,1.9,1,3.1,1c1.4,0,2.7-0.2,3.9-0.7l0.5,2.2c-1.4,0.6-3,0.9-4.8,0.9c-2.2,0-4-0.7-5.3-2
		c-1.3-1.3-1.9-3.1-1.9-5.3c0-2.2,0.6-4,1.8-5.4c1.2-1.5,2.9-2.3,5-2.3c2.1,0,3.6,0.8,4.7,2.3c0.8,1.2,1.3,2.7,1.3,4.5
		C149.5,30,149.5,30.4,149.4,30.8z"/>
	<path class="st0" d="M72.8,25.1c-0.8,0-1.5,0.3-2.1,0.8c-0.6,0.5-1.1,1.2-1.3,2.1c-0.1,0.4-0.2,0.7-0.2,1v2.4c0,1,0.3,1.9,1,2.7
		c0.6,0.7,1.5,1.1,2.5,1.1c1.2,0,2.1-0.5,2.8-1.4c0.7-0.9,1-2.2,1-3.7c0-1.4-0.3-2.6-0.9-3.5C74.9,25.6,74,25.1,72.8,25.1z"/>
	<path class="st0" d="M89.9,4c-0.9,0-1.6,0.8-1.7,1.9h3.3C91.5,4.8,90.9,4,89.9,4z"/>
</g>
</svg>
