<?xml version="1.0" encoding="utf-8"?>
<!-- Generator: Adobe Illustrator 22.0.0, SVG Export Plug-In . SVG Version: 6.00 Build 0)  -->
<svg version="1.1" xmlns="http://www.w3.org/2000/svg" xmlns:xlink="http://www.w3.org/1999/xlink" x="0px" y="0px"
	 viewBox="0 0 19 17.3" style="enable-background:new 0 0 19 17.3;" xml:space="preserve">
<style type="text/css">
	.st0{display:none;}
	.st1{display:inline;fill:none;stroke:#FFFFFF;stroke-linecap:round;stroke-linejoin:round;stroke-miterlimit:22.9256;}
	.st2{fill:#FFFFFF;}
</style>
<g id="Layer_1" class="st0">
	<polygon class="st1" points="-18,5.1 -2.8,5.1 -2.8,15.2 -18,15.2 -18,5.1 	"/>
	<polyline class="st1" points="-2.8,5.1 -10.4,11.4 -18,5.1 	"/>
</g>
<g id="Layer_2">
	<path class="st2" d="M16,4.1H3.7c-0.9,0-1.6,0.7-1.6,1.6V14c0,0.9,0.7,1.6,1.6,1.6H16c0.9,0,1.6-0.7,1.6-1.6V5.7
		C17.6,4.8,16.9,4.1,16,4.1z M16.8,6.1L11,11.2c-0.3,0.3-0.8,0.5-1.2,0.5c-0.4,0-0.8-0.2-1.2-0.5L2.8,6.1V5.2H3l6.2,5.4c0,0,0,0,0,0
		c0.4,0.4,0.9,0.4,1.3,0l0,0l6.2-5.4h0.1V6.1z"/>
	<path class="st2" d="M2.8,6.1"/>
	<path class="st2" d="M15,12.5"/>
</g>
</svg>
