<?xml version="1.0" encoding="utf-8"?>
<!-- Generator: Adobe Illustrator 22.0.0, SVG Export Plug-In . SVG Version: 6.00 Build 0)  -->
<svg version="1.1" id="Layer_2" xmlns="http://www.w3.org/2000/svg" xmlns:xlink="http://www.w3.org/1999/xlink" x="0px" y="0px"
	 viewBox="0 0 55 55" style="enable-background:new 0 0 55 55;" xml:space="preserve">
<style type="text/css">
	.st0{fill:#3ACBCC;}
	.st1{fill:#FFFFFF;}
</style>
<circle class="st0" cx="27.5" cy="27.5" r="23.5"/>
<g>
	<path class="st0" d="M27.5,2C41.6,2,53,13.4,53,27.5S41.6,53,27.5,53S2,41.6,2,27.5S13.4,2,27.5,2 M27.5,0C12.3,0,0,12.3,0,27.5
		S12.3,55,27.5,55S55,42.7,55,27.5S42.7,0,27.5,0L27.5,0z"/>
</g>
<g id="Layer_3">
	<path class="st1" d="M21,35L21,35c-0.6,0-1-0.5-1-1V21c0-0.5,0.4-1,1-1h0c0.5,0,1,0.4,1,1v13C22,34.5,21.6,35,21,35z"/>
	<path class="st1" d="M33,35L33,35c-0.5,0-1-0.5-1-1V21c0-0.5,0.5-1,1-1l0,0c0.5,0,1,0.4,1,1v13C34,34.5,33.5,35,33,35z"/>
	<path class="st1" d="M27,38L27,38c-0.6,0-1-0.5-1-1V18c0-0.5,0.4-1,1-1h0c0.5,0,1,0.4,1,1v19C28,37.5,27.6,38,27,38z"/>
</g>
</svg>
