<?xml version="1.0" encoding="utf-8"?>
<!-- Generator: Adobe Illustrator 22.0.0, SVG Export Plug-In . SVG Version: 6.00 Build 0)  -->
<svg version="1.1" id="Calque_2" xmlns="http://www.w3.org/2000/svg" xmlns:xlink="http://www.w3.org/1999/xlink" x="0px" y="0px"
	 viewBox="0 0 115.2 131" style="enable-background:new 0 0 115.2 131;" xml:space="preserve">
<style type="text/css">
	.st0{fill:none;stroke:#FFFFFF;stroke-width:2;stroke-linecap:round;stroke-linejoin:round;stroke-miterlimit:10;}
	.st1{fill:none;stroke:#FFFFFF;stroke-width:2;stroke-linejoin:round;stroke-miterlimit:10;}
</style>
<g>
	<g>
		<path class="st0" d="M74.6,113.4l-21-14.1c-2-1.4-2.6-4.1-1.2-6.2l0.4-0.6c1.4-2,4.1-2.6,6.2-1.2l9.5,6.4l-2.1-10.4L62.2,66
			c-0.5-2.4,1.1-4.7,3.5-5.2l0.4-0.1c2.4-0.5,4.7,1.1,5.2,3.5l3.2,16.4L91.7,80c0,0,5.7,0,7.1,7.2l2.4,20.3"/>
	</g>
	<polygon class="st0" points="20.9,40.9 25.6,51.4 37.1,52.6 28.5,60.3 30.9,71.6 20.9,65.9 10.9,71.6 13.3,60.3 4.8,52.6 
		16.2,51.4 	"/>
	<polyline class="st1" points="56.8,68 50.5,71.6 52.9,60.3 44.4,52.6 55.8,51.4 60.5,40.9 65.2,51.4 76.6,52.6 72,56.8 	"/>
	<polygon class="st0" points="100.1,40.9 104.7,51.4 116.2,52.6 107.6,60.3 110,71.6 100.1,65.9 90.1,71.6 92.5,60.3 83.9,52.6 
		95.4,51.4 	"/>
</g>
</svg>
