<?xml version="1.0" encoding="utf-8"?>
<!-- Generator: Adobe Illustrator 22.0.0, SVG Export Plug-In . SVG Version: 6.00 Build 0)  -->
<svg version="1.1" xmlns="http://www.w3.org/2000/svg" xmlns:xlink="http://www.w3.org/1999/xlink" x="0px" y="0px"
	 viewBox="0 0 106 98.4" style="enable-background:new 0 0 106 98.4;" xml:space="preserve">
<style type="text/css">
	.st0{fill:#3ACBCC;}
	.st1{clip-path:url(#SVGID_2_);fill:#35B5B7;}
	.st2{fill:none;stroke:#FFFFFF;stroke-width:2;stroke-linecap:round;stroke-linejoin:round;}
</style>
<g id="Layer_1">
	<g>
		
			<ellipse transform="matrix(0.9732 -0.2298 0.2298 0.9732 -9.4984 13.2009)" class="st0" cx="51.9" cy="47.4" rx="43.3" ry="43.3"/>
	</g>
	<g>
		<defs>
			
				<ellipse id="SVGID_1_" transform="matrix(0.9732 -0.2298 0.2298 0.9732 -9.4984 13.2009)" cx="51.9" cy="47.4" rx="43.3" ry="43.3"/>
		</defs>
		<clipPath id="SVGID_2_">
			<use xlink:href="#SVGID_1_"  style="overflow:visible;"/>
		</clipPath>
		<polygon class="st1" points="73,59.7 62.3,53.3 62.8,40.3 59,36 60,35.6 61.3,36.2 122.5,79.9 86.1,125.8 33.9,67.5 35.9,68.2 
			54.6,67.8 69.4,67.8 		"/>
	</g>
</g>
<g id="Layer_2">
	<g>
		<path class="st2" d="M56.6,26.8c0,2.8-2.3,5-5,5s-5-2.3-5-5c0-2.8,2.3-5,5-5S56.6,24,56.6,26.8z"/>
		<path class="st2" d="M56,61.5h-7.1c0,0-5.9,0-3.5,6"/>
		<path class="st2" d="M73,59.7l-10.7-6.4L62.9,42c0.3-6-5.4-5.8-5.4-5.8h-11c0,0-5.7-0.2-5.4,5.8l0.6,11.3l-10.7,6.4"/>
		<path class="st2" d="M58.5,42.2L58,55.7l9,5.1c2.1,1.3,2.9,2.1,2.9,3.9l0,0c0,1.7-1.4,3.2-3.2,3.2H37c-1.7,0-3.2-1.4-3.2-3.2l0,0
			c0-1.7,0.8-2.6,2.9-3.9l9-5.1l-0.4-13.5"/>
	</g>
</g>
</svg>
