<?xml version="1.0" encoding="utf-8"?>
<!-- Generator: Adobe Illustrator 22.0.0, SVG Export Plug-In . SVG Version: 6.00 Build 0)  -->
<svg version="1.1" id="Calque_3" xmlns="http://www.w3.org/2000/svg" xmlns:xlink="http://www.w3.org/1999/xlink" x="0px" y="0px"
	 viewBox="0 0 88 95.6" style="enable-background:new 0 0 88 95.6;" xml:space="preserve">
<style type="text/css">
	.st0{fill:none;stroke:#FFFFFF;stroke-width:2;stroke-linecap:round;stroke-linejoin:round;stroke-miterlimit:10;}
	.st1{fill:none;stroke:#FFFFFF;stroke-width:2;stroke-linecap:round;stroke-miterlimit:10;}
</style>
<g>
	<g>
		<path class="st0" d="M69.9,53.6c0-9.1,0-8.7,0-16.8c-0.3-22.9-20.2-21.3-20.2-21.3h-0.4c0,0-19.9-1.5-20.2,21.3c0,8,0,7.7,0,16.8"
			/>
		<path class="st0" d="M37.4,38.1c0,9.5,5.8,18.8,12.3,18.8c6.6,0,11.6-9.2,11.6-18.8c0,0,0.4-6.3-2.8-10.4c0,0-6.9,8.3-28.5,9.5"/>
	</g>
	<g>
		<path class="st1" d="M35.9,62.4L28.3,64c0,0-9.1,1.8-10.3,9.4l-1.3,21.2"/>
		<polyline class="st0" points="49.5,86.7 39.5,59 29.1,71.2 35.9,71.2 		"/>
		<g>
			<path class="st1" d="M63.1,62.4l7.5,1.6c0,0,9.1,1.8,10.3,9.4l1.3,21.2"/>
			<polyline class="st0" points="49.5,86.7 59.4,59 69.8,71.2 63.1,71.2 			"/>
		</g>
	</g>
</g>
</svg>
