<?xml version="1.0" encoding="utf-8"?>
<!-- Generator: Adobe Illustrator 22.0.0, SVG Export Plug-In . SVG Version: 6.00 Build 0)  -->
<svg version="1.1" xmlns="http://www.w3.org/2000/svg" xmlns:xlink="http://www.w3.org/1999/xlink" x="0px" y="0px"
	 viewBox="0 0 89 85.6" style="enable-background:new 0 0 89 85.6;" xml:space="preserve">
<style type="text/css">
	.st0{fill:none;stroke:#FFFFFF;stroke-width:2;stroke-linecap:round;stroke-linejoin:round;stroke-miterlimit:10;}
</style>
<g id="Calque_3">
	<g>
		<g>
			<path class="st0" d="M75.3,83.7c-0.7-4-1.7-10.5-1.3-16.8c0,0,2.3-10.4,6.9-17c0,0,14.7-25-7.2-41.1c0,0-19.3-14.3-42.7-1.1
				c0,0-13.1,5.6-10.3,23.7c0,0,0.6,5.1-1,7.4l-8.6,10.2c0,0-1.1,3,2.3,3.3l5.3,1.1c0,0,0.4,1.8,1.1,4.6c0.2,0.7,7.3,2.3,7.3,3
				c0,0.7-6,2.4-6,3.1c-0.1,2.7-0.6,4.2-0.6,4.2s-1.9,5,1.1,7.1c0.6,0.1,2.7,2.6,18.1-0.7c0,0,1.5,0.7,2.4,8.7"/>
		</g>
	</g>
	<polyline class="st0" points="49,26.5 39,26.5 39,40.3 49,40.3 	"/>
	<line class="st0" x1="46.3" y1="32.8" x2="39" y2="32.8"/>
	<polyline class="st0" points="54,40.3 54,26.5 64.9,40.3 64.9,26.5 	"/>
</g>
<g id="Layer_2">
	<line class="st0" x1="12.6" y1="70.5" x2="10.2" y2="74.3"/>
	<g>
		<line class="st0" x1="4" y1="55.9" x2="7.9" y2="58.4"/>
	</g>
	<g>
		<line class="st0" x1="4.7" y1="65.8" x2="9.2" y2="64.8"/>
	</g>
</g>
</svg>
