<?xml version="1.0" encoding="utf-8"?>
<!-- Generator: Adobe Illustrator 22.0.0, SVG Export Plug-In . SVG Version: 6.00 Build 0)  -->
<svg version="1.1" id="Calque_2" xmlns="http://www.w3.org/2000/svg" xmlns:xlink="http://www.w3.org/1999/xlink" x="0px" y="0px"
	 viewBox="0 0 98.6 73" style="enable-background:new 0 0 98.6 73;" xml:space="preserve">
<style type="text/css">
	.st0{fill:none;stroke:#FFFFFF;stroke-width:2;stroke-linecap:round;stroke-linejoin:round;stroke-miterlimit:10;}
	.st1{fill:none;stroke:#FFFFFF;stroke-width:2;stroke-miterlimit:10;}
	.st2{fill:none;stroke:#FFFFFF;stroke-width:2;stroke-linejoin:round;stroke-miterlimit:10;}
	.st3{fill:#3A4553;stroke:#FFFFFF;stroke-width:2;stroke-miterlimit:10;}
</style>
<g>
	<g>
		<polyline class="st0" points="13.5,45.8 31.5,30.1 49.7,45.9 		"/>
		<polyline class="st1" points="35.5,62.1 35.5,51.8 27.6,51.8 27.6,62.1 		"/>
		<g>
			<line class="st2" x1="18.6" y1="62.1" x2="18.6" y2="41.8"/>
			<line class="st2" x1="44.5" y1="42" x2="44.5" y2="62.1"/>
		</g>
	</g>
	<g>
		<line class="st2" x1="7.8" y1="18.5" x2="90.9" y2="18.5"/>
		<g>
			<g>
				<g>
					<path class="st3" d="M14.6,10c0,0.6-0.5,1.2-1.2,1.2c-0.6,0-1.2-0.5-1.2-1.2c0-0.6,0.5-1.2,1.2-1.2C14.1,8.9,14.6,9.4,14.6,10z
						"/>
				</g>
			</g>
			<g>
				<g>
					<circle class="st3" cx="24.7" cy="10" r="1.2"/>
				</g>
			</g>
			<g>
				<g>
					<circle class="st3" cx="35.8" cy="10" r="1.2"/>
				</g>
			</g>
		</g>
		<path class="st1" d="M97.6,66.6c0,2.9-2.4,5.4-5.4,5.4H6.4c-3,0-5.4-2.4-5.4-5.4V6.4C1,3.4,3.4,1,6.4,1h85.9
			c2.9,0,5.4,2.4,5.4,5.4V66.6z"/>
	</g>
	<line class="st2" x1="58.9" y1="30.3" x2="85.9" y2="30.3"/>
	<line class="st2" x1="58.9" y1="40.1" x2="85.9" y2="40.1"/>
	<line class="st2" x1="58.9" y1="49.9" x2="85.9" y2="49.9"/>
	<line class="st2" x1="58.9" y1="59.7" x2="85.9" y2="59.7"/>
</g>
</svg>
