<?xml version="1.0" encoding="utf-8"?>
<!-- Generator: Adobe Illustrator 22.0.0, SVG Export Plug-In . SVG Version: 6.00 Build 0)  -->
<svg version="1.1" xmlns="http://www.w3.org/2000/svg" xmlns:xlink="http://www.w3.org/1999/xlink" x="0px" y="0px"
	 viewBox="0 0 100.9 94" style="enable-background:new 0 0 100.9 94;" xml:space="preserve">
<style type="text/css">
	.st0{fill:#3ACBCC;}
	.st1{clip-path:url(#SVGID_2_);fill:#35B5B7;}
	.st2{fill:#FFFFFF;}
</style>
<g id="Layer_1">
	<g>
		
			<ellipse transform="matrix(0.9732 -0.2298 0.2298 0.9732 -9.3388 12.5716)" class="st0" cx="49.3" cy="46.4" rx="43.3" ry="43.3"/>
	</g>
	<g id="Layer_2">
	</g>
	<g>
		<defs>
			
				<ellipse id="SVGID_1_" transform="matrix(0.9732 -0.2298 0.2298 0.9732 -9.3388 12.5716)" cx="49.3" cy="46.4" rx="43.3" ry="43.3"/>
		</defs>
		<clipPath id="SVGID_2_">
			<use xlink:href="#SVGID_1_"  style="overflow:visible;"/>
		</clipPath>
		<polygon class="st1" points="69.7,63.5 69.5,46.7 69.5,30.2 65.7,25.9 67.9,26.5 130.4,71.1 83.5,124.8 29,66.2 28.1,64.1 
			33.2,67.2 52,66.8 67.5,66.8 		"/>
	</g>
	<g id="V_1_">
		<g>
			<path class="st2" d="M65.7,67.9c2.5,0,4.5-2,4.5-4.5V30.5c0-2.5-2-4.5-4.5-4.5H32.6c-2.5,0-4.5,2-4.5,4.5v32.9
				c0,2.5,2,4.5,4.5,4.5H65.7z M30,63.4V30.5c0-1.5,1.2-2.7,2.7-2.7h33.1c1.5,0,2.7,1.2,2.7,2.7v32.9c0,1.5-1.2,2.7-2.7,2.7H32.6
				C31.1,66,30,64.8,30,63.4z"/>
		</g>
		<g>
			<path class="st2" d="M41.3,30.7v-7.5c0-0.5-0.4-0.9-0.9-0.9c-0.5,0-0.9,0.4-0.9,0.9v7.5c0,0.5,0.4,0.9,0.9,0.9
				C40.8,31.7,41.3,31.2,41.3,30.7z"/>
		</g>
		<g>
			<path class="st2" d="M59.1,30.7v-7.5c0-0.5-0.4-0.9-0.9-0.9s-0.9,0.4-0.9,0.9v7.5c0,0.5,0.4,0.9,0.9,0.9S59.1,31.2,59.1,30.7z"/>
		</g>
		<g>
			<rect x="29" y="35.1" class="st2" width="40.1" height="1.9"/>
		</g>
		<g id="XMLID_14_">
			<g>
				<g id="XMLID_15_">
					<path class="st2" d="M48.4,55.7C48.4,55.7,48.4,55.7,48.4,55.7c0.3,0,0.6-0.1,0.7-0.3l8.1-9.7c0.3-0.4,0.3-1-0.1-1.3
						c-0.4-0.3-1-0.3-1.3,0.1l-7.4,8.9l-3.9-3.7c-0.4-0.4-1-0.3-1.3,0c-0.4,0.4-0.3,1,0,1.3l4.6,4.4C47.9,55.6,48.1,55.7,48.4,55.7z
						"/>
				</g>
			</g>
		</g>
	</g>
</g>
<g id="Layer_3">
</g>
</svg>
