<?xml version="1.0" encoding="utf-8"?>
<!-- Generator: Adobe Illustrator 22.0.0, SVG Export Plug-In . SVG Version: 6.00 Build 0)  -->
<svg version="1.1" xmlns="http://www.w3.org/2000/svg" xmlns:xlink="http://www.w3.org/1999/xlink" x="0px" y="0px"
	 viewBox="0 0 104 100.5" style="enable-background:new 0 0 104 100.5;" xml:space="preserve">
<style type="text/css">
	.st0{fill:#3ACBCC;}
	.st1{clip-path:url(#SVGID_2_);fill:#35B5B7;}
	.st2{display:none;}
	.st3{display:inline;fill:#FFFFFF;}
	.st4{fill:none;stroke:#FFFFFF;stroke-width:1.9982;stroke-linecap:round;stroke-linejoin:round;stroke-miterlimit:10;}
	.st5{fill:none;stroke:#FFFFFF;stroke-width:1.9982;stroke-linecap:round;stroke-miterlimit:10;}
</style>
<g id="Layer_1">
	<g>
		
			<ellipse transform="matrix(0.9732 -0.2298 0.2298 0.9732 -10.3025 13.2945)" class="st0" cx="51.9" cy="50.9" rx="43.3" ry="43.3"/>
	</g>
	<g>
		<defs>
			
				<ellipse id="SVGID_1_" transform="matrix(0.9732 -0.2298 0.2298 0.9732 -10.3025 13.2945)" cx="51.9" cy="50.9" rx="43.3" ry="43.3"/>
		</defs>
		<clipPath id="SVGID_2_">
			<use xlink:href="#SVGID_1_"  style="overflow:visible;"/>
		</clipPath>
		<polygon class="st1" points="65.9,60.9 70,59.5 72.2,56.4 71.9,54.4 69.7,52.8 63.6,55.8 63.2,44.8 67.1,44.3 61,31.8 138.3,75.4 
			86,135.3 32.7,71.4 37.9,67.8 54.1,67.2 		"/>
	</g>
</g>
<g id="Layer_2" class="st2">
	<path class="st3" d="M55.6,70.7c0,0.4-0.4,0.8-0.8,0.8H27.9c-2.2,0-3.9-1.8-3.9-3.9s1.8-3.9,3.9-3.9h5.3c0.1,0,0.1,0,0.2-0.1
		c0,0,0.1-0.1,0.1-0.2v0c0-2.2,1.8-3.9,3.9-3.9h6.2c0.4,0,0.8,0.4,0.8,0.8S44,61,43.6,61h-6.2c-1.3,0-2.4,1.1-2.4,2.4v0
		c0,0.5-0.2,1-0.5,1.3c-0.3,0.3-0.8,0.5-1.3,0.5h-5.3c-1.3,0-2.4,1.1-2.4,2.4c0,1.3,1.1,2.4,2.4,2.4h26.8
		C55.2,69.9,55.6,70.3,55.6,70.7z M59.5,41c0.4,0,0.8-0.4,0.8-0.8s-0.4-0.8-0.8-0.8h-4.2c-0.4,0-0.8,0.4-0.8,0.8s0.4,0.8,0.8,0.8
		H59.5z M72.8,61.9c0.8,1.3,1.2,2.9,1.2,4.6v3.2c0,1-0.8,1.8-1.8,1.8h-20c-5.1,0-9.2-4.1-9.2-9.2v-7.4c0-0.3,0-0.6,0.1-0.8
		c-0.7-0.5-1.2-1.4-1.2-2.3c0-1.6,1.3-2.9,2.9-2.9h1.3v-0.3c0-0.7,0.4-1.4,1.1-1.7v-6h-8.9l1.4,16c0,0.4-0.3,0.8-0.7,0.9
		c-0.4,0-0.8-0.3-0.9-0.7l-1.4-16.2c-1.2-0.3-2.2-1.5-2.2-2.8V36c0-1.6,1.3-2.9,2.9-2.9h9.7v-8.7c0-1.6,1.3-2.9,2.9-2.9
		s2.9,1.3,2.9,2.9v22.5c0.6,0.3,1.1,0.9,1.1,1.7v0.3h1.3c1.6,0,2.9,1.3,2.9,2.9c0,1-0.5,1.8-1.2,2.3c0.1,0.3,0.1,0.5,0.1,0.8V56
		c0,0.7,0.6,1.3,1.3,1.3h6.3C68.2,57.3,71.1,59.1,72.8,61.9C72.8,61.9,72.8,61.9,72.8,61.9z M48.7,46.8h2.6V24.4
		c0-0.7-0.6-1.3-1.3-1.3s-1.3,0.6-1.3,1.3V46.8z M47.2,39.4v-4.7h-9.7c-0.7,0-1.3,0.6-1.3,1.3v2.1c0,0.7,0.6,1.3,1.3,1.3
		c0,0,0,0,0,0H47.2z M72.4,67.3H60.6c-1.6,0-3.1-0.4-4.5-1.2c-0.4-0.2-0.5-0.7-0.3-1.1c0.2-0.4,0.7-0.5,1.1-0.3c1.1,0.6,2.4,1,3.7,1
		h11.8c-0.1-0.9-0.4-1.8-0.8-2.6h-11c-1.6,0-3.1-0.4-4.5-1.2c-0.4-0.2-0.5-0.7-0.3-1.1c0.2-0.4,0.7-0.5,1.1-0.3c1.1,0.6,2.4,1,3.7,1
		h10c-1.4-1.6-3.5-2.6-5.8-2.6h-6.3c-1.6,0-2.9-1.3-2.9-2.9v-1.1c0-0.1,0-0.2,0-0.3c-0.1,0-0.2,0-0.2,0h-1.1c-0.4,0-0.8-0.4-0.8-0.8
		s0.4-0.8,0.8-0.8h1.1c0.7,0,1.3-0.6,1.3-1.3c0-0.7-0.6-1.3-1.3-1.3h-2.1c-0.4,0-0.8-0.4-0.8-0.8v-1.1c0-0.1-0.1-0.3-0.3-0.3h-4.2
		c-0.1,0-0.3,0.1-0.3,0.3v1.1c0,0.4-0.4,0.8-0.8,0.8h-2.1c-0.7,0-1.3,0.6-1.3,1.3c0,0.7,0.6,1.3,1.3,1.3h6.3c0.4,0,0.8,0.4,0.8,0.8
		s-0.4,0.8-0.8,0.8h-6.3c-0.1,0-0.2,0-0.2,0c0,0.1,0,0.2,0,0.3v7.4c0,3.9,2.9,7,6.6,7.6c-2.4-1.7-4-4.4-4-7.6V57
		c0-0.4,0.4-0.8,0.8-0.8c0.4,0,0.8,0.4,0.8,0.8v5.3c0,3.9,2.9,7,6.6,7.6c-2.4-1.7-4-4.4-4-7.6V57c0-0.4,0.4-0.8,0.8-0.8
		s0.8,0.4,0.8,0.8v5.3c0,4.2,3.4,7.6,7.6,7.6h11.6c0.1,0,0.3-0.1,0.3-0.3V67.3z M74,36v2.1c0,1.3-0.9,2.5-2.2,2.8l-1.4,18.2
		c0,0.4-0.4,0.7-0.8,0.7c0,0,0,0-0.1,0c-0.4,0-0.8-0.4-0.7-0.9l1.4-18h-2.6v0.3c0,0.8-0.3,1.5-0.9,2.1c-0.6,0.6-1.3,0.8-2.1,0.8
		c-1.6-0.1-2.8-1.3-2.8-2.9v-3.4c-0.2,0-0.4,0-0.5,0c-1.5-0.1-2.6-1.4-2.6-2.9v-0.2h-3.4c-0.4,0-0.8-0.4-0.8-0.8s0.4-0.8,0.8-0.8
		h3.6c0.3-0.6,0.9-1.1,1.7-1.1h5.3c0.7,0,1.4,0.4,1.7,1.1h3.6C72.7,33.1,74,34.4,74,36z M66.1,33.9c0-0.1-0.1-0.3-0.3-0.3h-5.3
		c-0.1,0-0.3,0.1-0.3,0.3v1c0,0.7,0.5,1.3,1.2,1.4c0.3,0,0.5,0,0.8-0.2c0.1-0.1,0.3-0.1,0.4-0.1c0.1,0,0.3,0,0.4,0.1
		c0.2,0.1,0.4,0.4,0.4,0.7v4.4c0,0.7,0.6,1.3,1.3,1.4c0.4,0,0.7-0.1,1-0.4c0.3-0.3,0.4-0.6,0.4-0.9L66.1,33.9L66.1,33.9z M72.4,36
		c0-0.7-0.6-1.3-1.3-1.3h-3.4v4.7h3.4c0,0,0,0,0,0c0.7,0,1.3-0.6,1.3-1.3V36z"/>
</g>
<g id="Layer_3">
	<g>
		<g>
			<polyline class="st4" points="44.6,37.3 40,44.3 35,44.3 42.4,32.7 48.8,44.3 67.1,44.3 60.7,32.7 42.4,32.7 			"/>
			<line class="st4" x1="39.8" y1="44.5" x2="39.8" y2="52.1"/>
			<line class="st4" x1="63" y1="44.4" x2="63" y2="55.3"/>
			<line class="st4" x1="52.5" y1="44.4" x2="52.5" y2="53.2"/>
		</g>
		<line class="st4" x1="51.7" y1="26" x2="51.7" y2="21.5"/>
		<g>
			<line class="st4" x1="33.6" y1="33.4" x2="30.4" y2="30.2"/>
		</g>
		<g>
			<line class="st4" x1="41.9" y1="28" x2="40.2" y2="23.9"/>
			<line class="st4" x1="61.5" y1="27.9" x2="63.2" y2="23.7"/>
		</g>
		<g>
			<path class="st4" d="M60,57.5l7.9-4c1.5-0.8,3.3-0.5,4.1,0.9c0.7,1.4,0.1,3.2-1.4,4l-16.4,8.8l-0.9,0.2l-15.3,0.4
				c0,0-2,0.6-4.3,3.2"/>
			<path class="st5" d="M28.1,63l6.9-6.4c3.4-2.3,7.4-1,7.4-1c1.9,0.5,5.6,0.6,5.6,0.6l6,0c1.8,0,3.3,1.3,3.3,2.8
				c0,1.6-1.5,2.8-3.3,2.8h-8.3"/>
		</g>
	</g>
</g>
</svg>
