<?xml version="1.0" encoding="utf-8"?>
<!-- Generator: Adobe Illustrator 22.0.0, SVG Export Plug-In . SVG Version: 6.00 Build 0)  -->
<svg version="1.1" id="Layer_1" xmlns="http://www.w3.org/2000/svg" xmlns:xlink="http://www.w3.org/1999/xlink" x="0px" y="0px"
	 viewBox="0 0 121.2 36.2" style="enable-background:new 0 0 121.2 36.2;" xml:space="preserve">
<style type="text/css">
	.st0{fill:none;stroke:#3ACBCC;stroke-width:1.5;stroke-linecap:round;stroke-miterlimit:10;}
	.st1{fill:#333333;}
</style>
<path class="st0" d="M12.4,28.1c-3.3,0-6-2.7-6-6"/>
<path class="st0" d="M21.4,13.4l-8.5-7.7l-8.5,7.7c0,0-3.7,3.3-3.7,8.5c0,2.4,0.7,4.5,1.5,5.9c0.9,1.7,2.3,3.2,3.9,4.3
	c1.7,1.1,4.1,2.1,6.7,2.1s5.1-1.1,6.7-2.1c1.7-1.1,3-2.5,3.9-4.3c0.8-1.5,1.5-3.5,1.5-5.9C25.1,16.8,21.4,13.4,21.4,13.4z"/>
<path class="st0" d="M30.6,18c1.1-0.7,1.9-1.6,2.5-2.7c0.5-0.9,1-2.2,1-3.8c0-3.3-2.4-5.5-2.4-5.5L26.3,1l-4.6,4.6"/>
<g>
	<path class="st1" d="M50.3,10.4h3.8V25h7.6v3.4H50.3V10.4z"/>
	<path class="st1" d="M72.2,10.1c5.5,0,9.4,3.9,9.4,9.3c0,5.4-4,9.3-9.4,9.3c-5.4,0-9.4-3.9-9.4-9.3C62.8,14,66.8,10.1,72.2,10.1z
		 M72.2,13.5c-3.3,0-5.5,2.5-5.5,5.9c0,3.3,2.1,5.9,5.5,5.9s5.5-2.6,5.5-5.9C77.7,16,75.5,13.5,72.2,13.5z"/>
	<path class="st1" d="M93,10.1c3.8,0,6.1,1.9,7.5,4l-3.2,1.7c-0.8-1.3-2.3-2.3-4.3-2.3c-3.3,0-5.6,2.5-5.6,5.9
		c0,3.4,2.4,5.9,5.6,5.9c1.6,0,3.1-0.7,3.8-1.4v-2.2h-4.8v-3.3h8.6v6.9c-1.8,2.1-4.4,3.4-7.7,3.4c-5.3,0-9.6-3.7-9.6-9.3
		C83.5,13.7,87.8,10.1,93,10.1z"/>
	<path class="st1" d="M112.3,10.1c5.5,0,9.4,3.9,9.4,9.3c0,5.4-4,9.3-9.4,9.3c-5.4,0-9.4-3.9-9.4-9.3
		C102.9,14,106.9,10.1,112.3,10.1z M112.3,13.5c-3.3,0-5.5,2.5-5.5,5.9c0,3.3,2.1,5.9,5.5,5.9s5.5-2.6,5.5-5.9
		C117.8,16,115.6,13.5,112.3,13.5z"/>
</g>
</svg>
