<?xml version="1.0" encoding="utf-8"?>
<!-- Generator: Adobe Illustrator 22.0.0, SVG Export Plug-In . SVG Version: 6.00 Build 0)  -->
<svg version="1.1" id="Calque_2" xmlns="http://www.w3.org/2000/svg" xmlns:xlink="http://www.w3.org/1999/xlink" x="0px" y="0px"
	 viewBox="0 0 120 116" style="enable-background:new 0 0 120 116;" xml:space="preserve">
<style type="text/css">
	.st0{fill:none;stroke:#FFFFFF;stroke-width:2;stroke-linecap:round;stroke-linejoin:round;stroke-miterlimit:10;}
	.st1{fill:#394553;stroke:#FFFFFF;stroke-width:2;stroke-miterlimit:10;}
</style>
<g>
	<path class="st0" d="M68.4,88.5C93.2,87.6,95,66.8,95,66.8s0.1-4.6-2-7"/>
	<path class="st0" d="M29.4,68.5c0,0,4.9,37.2,30.7,37.2c25.7,0,32.1-37.2,32.1-37.2c1.7-11.2-1.4-22.3-1.4-22.3
		c0,0-13.6-3.9-21.6-12.2c-3.4-3.5-3.5-3.1-4.9,0.3c-9.3,24.1-33.3,18.9-33.3,18.9"/>
	<g>
		<g>
			<g>
				<path class="st1" d="M48.7,63.5c0,0.7-0.6,1.3-1.3,1.3c-0.7,0-1.3-0.6-1.3-1.3c0-0.7,0.6-1.3,1.3-1.3
					C48.1,62.2,48.7,62.8,48.7,63.5z"/>
			</g>
		</g>
		<g>
			<g>
				<path class="st1" d="M76.1,63.5c0,0.7-0.6,1.3-1.3,1.3c-0.7,0-1.3-0.6-1.3-1.3c0-0.7,0.6-1.3,1.3-1.3
					C75.5,62.2,76.1,62.8,76.1,63.5z"/>
			</g>
		</g>
	</g>
	<path class="st0" d="M68.2,89.2c0,2-1.6,3.6-3.6,3.6h-7.1c-2,0-3.6-1.6-3.6-3.6v-1.6c0-2,1.6-3.6,3.6-3.6h7.1c2,0,3.6,1.6,3.6,3.6
		V89.2z"/>
	<path class="st0" d="M95.4,93.4c11.8,6.6,17.1-1.7,17.1-1.7c-8.3-7.2-7.5-11.7-7.7-17.2c-0.3-5.8,0.3-7.1,2-15.3
		c5.3-42.9-36.1-48.1-46.3-48.1c-10.2,0-51.7,5-46.3,48.1c1.7,8.2,2.3,9.5,2,15.3c-0.3,5.5,0.6,10-7.7,17.2c0,0,5.3,8.3,17.1,1.7"/>
</g>
</svg>
