<?xml version="1.0" encoding="utf-8"?>
<!-- Generator: Adobe Illustrator 22.0.0, SVG Export Plug-In . SVG Version: 6.00 Build 0)  -->
<svg version="1.1" id="Calque_2" xmlns="http://www.w3.org/2000/svg" xmlns:xlink="http://www.w3.org/1999/xlink" x="0px" y="0px"
	 viewBox="0 0 93.2 112.1" style="enable-background:new 0 0 93.2 112.1;" xml:space="preserve">
<style type="text/css">
	.st0{fill:none;stroke:#FFFFFF;stroke-width:2;stroke-linecap:round;stroke-linejoin:round;stroke-miterlimit:10;}
	.st1{fill:none;stroke:#FFFFFF;stroke-width:2;stroke-linejoin:round;stroke-miterlimit:10;}
</style>
<g>
	<polyline class="st0" points="47.6,48.5 47.6,30.7 41.5,35.6 	"/>
	<g>
		<path class="st1" d="M45.7,1.4c0.9-0.6,2.4-0.6,3.3,0.1l8,5.6c0.9,0.6,2.5,1.3,3.6,1.4l9.7,1.3c1.1,0.1,2.2,1.1,2.5,2.2l2.5,9.4
			c0.3,1.1,1.1,2.6,1.9,3.4l6.6,7.2c0.7,0.8,1,2.3,0.5,3.3L80,44.1c-0.5,1-0.8,2.7-0.8,3.8l0.4,9.7c0,1.1-0.7,2.4-1.7,2.8l-8.9,4.1
			c-1,0.5-2.4,1.5-3,2.4l-5.9,7.7c-0.7,0.9-2.1,1.3-3.1,1.1l-9.4-2.6c-1.1-0.3-2.8-0.3-3.9-0.1l-9.5,2.1c-1.1,0.2-2.5-0.3-3.1-1.2
			l-5.5-8c-0.6-0.9-1.9-2.1-2.9-2.6L14,58.9c-1-0.5-1.7-1.8-1.6-2.9l0.9-9.7c0.1-1.1-0.2-2.8-0.6-3.8l-3.7-9c-0.4-1-0.1-2.5,0.7-3.3
			l6.9-6.9c0.8-0.8,1.7-2.3,2-3.3l2.9-9.3c0.3-1,1.5-2,2.6-2.1l9.7-0.8c1.1-0.1,2.8-0.6,3.7-1.2L45.7,1.4z"/>
	</g>
	<g>
		<polyline class="st1" points="37.3,83.5 23.6,111.1 18.9,91.9 1,99.9 15.7,69.7 		"/>
		<polyline class="st1" points="55.9,83.5 69.6,111.1 74.3,91.9 92.2,99.9 77.5,69.7 		"/>
	</g>
</g>
<circle class="st1" cx="46.6" cy="38.9" r="22.4"/>
</svg>
