<?xml version="1.0" encoding="utf-8"?>
<!-- Generator: Adobe Illustrator 22.0.0, SVG Export Plug-In . SVG Version: 6.00 Build 0)  -->
<svg version="1.1" id="Calque_2" xmlns="http://www.w3.org/2000/svg" xmlns:xlink="http://www.w3.org/1999/xlink" x="0px" y="0px"
	 viewBox="0 0 140 112" style="enable-background:new 0 0 140 112;" xml:space="preserve">
<style type="text/css">
	.st0{fill:none;stroke:#FFFFFF;stroke-width:2;stroke-linecap:round;stroke-linejoin:round;stroke-miterlimit:10;}
	.st1{fill:none;stroke:#FFFFFF;stroke-width:2;stroke-linecap:round;stroke-miterlimit:10;}
	.st2{fill:none;stroke:#FFFFFF;stroke-width:2;stroke-linejoin:round;stroke-miterlimit:10;}
	.st3{fill:#394553;stroke:#FFFFFF;stroke-width:2;stroke-miterlimit:10;}
	.st4{fill:none;stroke:#FFFFFF;stroke-width:2;stroke-miterlimit:10;}
	.st5{fill:#FFFFFF;}
</style>
<g>
	<path class="st0" d="M85,83.2c0,1.2-1,2.2-2.2,2.2H57.7c-1.2,0-2.2-1-2.2-2.2V63.6c0-1.2,1-2.2,2.2-2.2h25.1c1.2,0,2.2,1,2.2,2.2
		V83.2z"/>
	<line class="st1" x1="70.2" y1="71.2" x2="70.2" y2="78.2"/>
	<line class="st2" x1="17" y1="40.2" x2="123.5" y2="40.2"/>
	<g>
		<g>
			<g>
				<path class="st3" d="M31.7,29.5c0,0.7-0.6,1.3-1.3,1.3c-0.7,0-1.3-0.6-1.3-1.3c0-0.7,0.6-1.3,1.3-1.3
					C31.1,28.2,31.7,28.8,31.7,29.5z"/>
			</g>
		</g>
		<g>
			<g>
				<circle class="st3" cx="43.1" cy="29.5" r="1.3"/>
			</g>
		</g>
		<g>
			<g>
				<path class="st3" d="M57.1,29.5c0,0.7-0.6,1.3-1.3,1.3c-0.7,0-1.3-0.6-1.3-1.3c0-0.7,0.6-1.3,1.3-1.3
					C56.5,28.2,57.1,28.8,57.1,29.5z"/>
			</g>
		</g>
	</g>
	<g>
		<g>
			<path class="st3" d="M71.6,70.9c0,0.7-0.6,1.3-1.3,1.3c-0.7,0-1.3-0.6-1.3-1.3c0-0.7,0.6-1.3,1.3-1.3
				C71,69.6,71.6,70.2,71.6,70.9z"/>
		</g>
	</g>
	<path class="st4" d="M79.2,61.7v-4.4c0-3.7-3.1-6.8-6.8-6.8h-4.4c-3.7,0-6.8,3.1-6.8,6.8v4.4"/>
</g>
<g>
	<path class="st5" d="M117.5,18c3.6,0,6.5,2.9,6.5,6.5v66.2c0,3.6-2.9,6.5-6.5,6.5H23c-3.6,0-6.5-2.9-6.5-6.5V24.5
		c0-3.6,2.9-6.5,6.5-6.5H117.5 M117.5,16H23c-4.7,0-8.5,3.8-8.5,8.5v66.2c0,4.7,3.8,8.5,8.5,8.5h94.5c4.7,0,8.5-3.8,8.5-8.5V24.5
		C126,19.8,122.2,16,117.5,16L117.5,16z"/>
</g>
</svg>
